#!OML:ASF F:\VICON\USERDATA\INSTALL\rory3\rory3.ASF
:FULLY-SPECIFIED
:DEGREES
463
root 1.1606 17.9942 -4.11318 -5.8624 -53.9405 4.737
lowerback 6.44988 -5.23747 -2.20604
upperback 1.32079 -7.10136 1.87035
thorax -1.72476 -3.54832 3.68162
lowerneck -11.2254 1.92281 -5.56316
upperneck 8.69787 3.01357 4.08699
head 4.28411 1.54344 2.36613
rclavicle -1.38354e-013 2.14687e-014
rhumerus -10.4592 6.86856 -36.3058
rradius 101.099
rwrist 17.2764
rhand -33.2797 14.6797
rfingers 7.12502
rthumb -6.4842 -15.2011
lclavicle -1.38354e-013 2.14687e-014
lhumerus -0.162377 -15.7214 57.2341
lradius 88.0345
lwrist -3.3344
lhand -36.3795 10.0477
lfingers 7.12502
lthumb -9.476 39.8146
rfemur -27.0008 37.6536 -3.28425
rtibia 24.947
rfoot -8.87416 8.77297
rtoes -17.1639
lfemur 8.7889 17.1775 -16.3129
ltibia 25.43
lfoot -32.6774 30.3915
ltoes -1.11023
464
root 1.14317 17.9903 -4.09244 -5.5722 -54.4838 4.2028
lowerback 6.28794 -5.29666 -1.84636
upperback 1.4361 -7.15767 1.75865
thorax -1.57018 -3.58185 3.34988
lowerneck -11.4304 1.93187 -4.85481
upperneck 8.96971 2.93796 3.90392
head 4.41855 1.51803 2.19758
rclavicle 1.29359e-013 -3.49861e-014
rhumerus -11.6029 5.7656 -36.245
rradius 101.253
rwrist 17.2903
rhand -33.51 14.2476
rfingers 7.12502
rthumb -6.70655 -15.6262
lclavicle 1.29359e-013 -3.49861e-014
lhumerus 0.795474 -16.5649 57.5036
lradius 87.8414
lwrist -3.43769
lhand -36.1196 9.1382
lfingers 7.12502
lthumb -9.2252 38.9164
rfemur -26.9962 37.8699 -2.82042
rtibia 24.9365
rfoot -8.73772 9.11558
rtoes -16.5641
lfemur 9.11757 17.2606 -16.0058
ltibia 25.3743
lfoot -32.9377 30.7827
ltoes -1.31798
465
root 1.12473 17.9882 -4.07216 -5.43984 -54.9378 3.87485
lowerback 6.15859 -5.47207 -1.7637
upperback 1.53076 -7.38705 1.72134
thorax -1.40045 -3.70126 3.25967
lowerneck -11.69 2.03645 -4.14788
upperneck 9.24837 3.01998 3.4586
head 4.56167 1.55466 1.95917
rclavicle -6.11263e-015 1.66979e-014
rhumerus -12.308 4.77077 -36.2076
rradius 101.263
rwrist 17.4528
rhand -33.7903 13.8207
rfingers 7.12502
rthumb -6.97711 -16.0443
lclavicle -6.11263e-015 1.66979e-014
lhumerus 1.5259 -17.3027 57.8013
lradius 87.7596
lwrist -3.11723
lhand -36.2207 9.03088
lfingers 7.12502
lthumb -9.32277 38.8047
rfemur -26.925 38.0266 -2.47676
rtibia 24.9043
rfoot -8.63219 9.42697
rtoes -16.1788
lfemur 9.45396 17.3472 -15.8214
ltibia 25.3098
lfoot -33.1251 31.1206
ltoes -1.5395
466
root 1.11333 17.9885 -4.08026 -5.17446 -55.0357 3.71873
lowerback 6.11689 -5.77121 -2.09347
upperback 1.44562 -7.80369 1.85425
thorax -1.37441 -3.9095 3.59762
lowerneck -11.9038 2.13219 -4.10459
upperneck 9.42371 3.15683 3.37878
head 4.64765 1.61832 1.94284
rclavicle 3.6477e-014 6.36111e-015
rhumerus -12.8053 3.91645 -36.1205
rradius 101.219
rwrist 17.6335
rhand -33.9809 13.3035
rfingers 7.12502
rthumb -7.16111 -16.5553
lclavicle 3.6477e-014 6.36111e-015
lhumerus 2.12171 -18.0136 58.2512
lradius 87.7014
lwrist -2.58765
lhand -36.6233 9.83187
lfingers 7.12502
lthumb -9.7112 39.588
rfemur -27.0819 37.86 -2.33373
rtibia 24.9056
rfoot -8.52424 9.63957
rtoes -16.163
lfemur 9.39379 17.3951 -15.6818
ltibia 25.2307
lfoot -32.999 31.162
ltoes -1.43721
467
root 1.08982 17.9882 -4.05687 -5.14594 -55.5636 3.64081
lowerback 5.85436 -5.9613 -2.09541
upperback 1.48939 -8.05481 1.87016
thorax -1.16249 -4.04042 3.59289
lowerneck -12.0262 2.22153 -4.16639
upperneck 9.51722 3.28112 3.46252
head 4.68924 1.68257 1.99087
rclavicle 1.63997e-014 -8.74653e-015
rhumerus -13.2239 3.0402 -35.9726
rradius 101.049
rwrist 17.8
rhand -33.8966 13.238
rfingers 7.12502
rthumb -7.07977 -16.6236
lclavicle 1.63997e-014 -8.74653e-015
lhumerus 2.70559 -18.5122 58.7199
lradius 87.5609
lwrist -2.70485
lhand -36.6026 10.1115
lfingers 7.12502
lthumb -9.69122 39.8685
rfemur -27.1931 37.934 -2.20372
rtibia 24.9414
rfoot -8.41653 10.1415
rtoes -15.789
lfemur 9.6298 17.2894 -15.7916
ltibia 25.1443
lfoot -33.7009 31.3701
ltoes -0.559117
468
root 1.07038 17.9872 -4.04227 -4.93533 -56.0224 3.36952
lowerback 5.69495 -6.18897 -2.12263
upperback 1.5099 -8.35829 1.95367
thorax -1.01371 -4.19658 3.68505
lowerneck -12.0222 2.33421 -4.18134
upperneck 9.48835 3.42697 3.53298
head 4.67213 1.75847 2.02479
rclavicle 3.28492e-014 1.59028e-015
rhumerus -13.5917 1.98036 -35.7461
rradius 100.806
rwrist 18.1878
rhand -33.738 13.6348
rfingers 7.12502
rthumb -6.92665 -16.2318
lclavicle 3.28492e-014 1.59028e-015
lhumerus 3.21213 -18.7104 59.2821
lradius 87.3318
lwrist -3.42935
lhand -36.3552 9.86333
lfingers 7.12502
lthumb -9.45252 39.6313
rfemur -27.3471 38.0102 -1.96957
rtibia 25.0398
rfoot -8.3621 10.4844
rtoes -15.5936
lfemur 9.82193 17.2139 -15.7372
ltibia 25.0431
lfoot -34.3197 31.5144
ltoes -0.0121097
469
root 1.05296 17.9847 -4.03386 -4.41468 -56.4203 2.83457
lowerback 5.58522 -6.43558 -2.13298
upperback 1.44289 -8.68505 2.19468
thorax -0.957456 -4.36269 3.94021
lowerneck -11.9685 2.45109 -4.37773
upperneck 9.44889 3.61138 3.57267
head 4.63915 1.8445 2.0798
rclavicle -1.73937e-014 7.95139e-015
rhumerus -13.9597 1.15427 -35.3324
rradius 100.718
rwrist 18.3334
rhand -33.5195 13.7789
rfingers 7.12502
rthumb -6.71576 -16.0946
lclavicle -1.73937e-014 7.95139e-015
lhumerus 3.57324 -18.955 59.9964
lradius 87.1586
lwrist -3.84374
lhand -36.3652 9.84745
lfingers 7.12502
lthumb -9.46221 39.615
rfemur -27.6114 38.0892 -1.64373
rtibia 25.1734
rfoot -8.33006 10.6757
rtoes -15.3713
lfemur 9.95469 17.2603 -15.4612
ltibia 24.8443
lfoot -34.6444 31.5593
ltoes 0.519959
